<?xml version="1.0" encoding="UTF-8" standalone="no"?>
<!-- Created with Inkscape (http://www.inkscape.org/) -->

<svg
   width="64"
   height="64"
   viewBox="0 0 16.933333 16.933334"
   version="1.1"
   id="svg13218"
   inkscape:version="1.1.1 (3bf5ae0d25, 2021-09-20, custom)"
   sodipodi:docname="water_icon.svg"
   inkscape:export-filename="/hdd/Code/C++/camper-system-monitor/source/qml/water_icon.png"
   inkscape:export-xdpi="96"
   inkscape:export-ydpi="96"
   xmlns:inkscape="http://www.inkscape.org/namespaces/inkscape"
   xmlns:sodipodi="http://sodipodi.sourceforge.net/DTD/sodipodi-0.dtd"
   xmlns="http://www.w3.org/2000/svg"
   xmlns:svg="http://www.w3.org/2000/svg">
  <sodipodi:namedview
     id="namedview13220"
     pagecolor="#ffffff"
     bordercolor="#666666"
     borderopacity="1.0"
     inkscape:pageshadow="2"
     inkscape:pageopacity="0.0"
     inkscape:pagecheckerboard="0"
     inkscape:document-units="mm"
     showgrid="true"
     units="px"
     inkscape:zoom="12.329405"
     inkscape:cx="95.462838"
     inkscape:cy="31.550589"
     inkscape:window-width="3840"
     inkscape:window-height="2131"
     inkscape:window-x="0"
     inkscape:window-y="0"
     inkscape:window-maximized="1"
     inkscape:current-layer="layer1">
    <inkscape:grid
       type="xygrid"
       id="grid13279" />
  </sodipodi:namedview>
  <defs
     id="defs13215" />
  <g
     inkscape:label="Layer 1"
     inkscape:groupmode="layer"
     id="layer1">
    <g
       id="g15079"
       transform="translate(-0.26458528,1.3229162)"
       style="stroke-width:0.52916667;stroke-miterlimit:4;stroke-dasharray:none;stroke:#1d6d64;stroke-opacity:1">
      <path
         style="fill:none;stroke:#1d6d64;stroke-width:0.52916667;stroke-linecap:butt;stroke-linejoin:miter;stroke-opacity:1;stroke-miterlimit:4;stroke-dasharray:none"
         d="m 2.38125,3.96875 c 0,0 1.0583334,-0.5291667 2.1166667,0 1.0583333,0.5291666 2.1166666,0 2.1166666,0"
         id="path14538" />
      <path
         style="fill:none;stroke:#1d6d64;stroke-width:0.52916667;stroke-linecap:butt;stroke-linejoin:miter;stroke-opacity:1;stroke-miterlimit:4;stroke-dasharray:none"
         d="m 6.6145836,3.96875 c 0,0 1.0583334,-0.5291667 2.1166667,0 1.0583333,0.5291666 2.1166667,0 2.1166667,0"
         id="path14540" />
      <path
         style="fill:none;stroke:#1d6d64;stroke-width:0.52916667;stroke-linecap:butt;stroke-linejoin:miter;stroke-opacity:1;stroke-miterlimit:4;stroke-dasharray:none"
         d="m 10.847917,3.96875 c 0,0 1.058334,-0.5291667 2.116668,0 1.058334,0.5291666 2.116668,0 2.116668,0"
         id="path14622" />
      <path
         style="fill:none;stroke:#1d6d64;stroke-width:0.52916667;stroke-linecap:butt;stroke-linejoin:miter;stroke-opacity:1;stroke-miterlimit:4;stroke-dasharray:none"
         d="m 2.38125,5.5562501 c 0,0 1.0583334,-0.5291667 2.1166667,0 1.0583333,0.5291666 2.1166666,0 2.1166666,0"
         id="path14704" />
      <path
         style="fill:none;stroke:#1d6d64;stroke-width:0.52916667;stroke-linecap:butt;stroke-linejoin:miter;stroke-opacity:1;stroke-miterlimit:4;stroke-dasharray:none"
         d="m 6.6145836,5.5562501 c 0,0 1.0583334,-0.5291667 2.1166667,0 1.0583333,0.5291666 2.1166667,0 2.1166667,0"
         id="path14706" />
      <path
         style="fill:none;stroke:#1d6d64;stroke-width:0.52916667;stroke-linecap:butt;stroke-linejoin:miter;stroke-opacity:1;stroke-miterlimit:4;stroke-dasharray:none"
         d="m 10.847917,5.5562501 c 0,0 1.058334,-0.5291667 2.116668,0 1.058334,0.5291666 2.116668,0 2.116668,0"
         id="path14708" />
      <path
         style="fill:none;stroke:#1d6d64;stroke-width:0.52916667;stroke-linecap:butt;stroke-linejoin:miter;stroke-opacity:1;stroke-miterlimit:4;stroke-dasharray:none"
         d="m 2.38125,7.1437502 c 0,0 1.0583334,-0.5291667 2.1166667,0 1.0583333,0.5291666 2.1166666,0 2.1166666,0"
         id="path14790" />
      <path
         style="fill:none;stroke:#1d6d64;stroke-width:0.52916667;stroke-linecap:butt;stroke-linejoin:miter;stroke-opacity:1;stroke-miterlimit:4;stroke-dasharray:none"
         d="m 6.6145836,7.1437502 c 0,0 1.0583334,-0.5291667 2.1166667,0 1.0583333,0.5291666 2.1166667,0 2.1166667,0"
         id="path14792" />
      <path
         style="fill:none;stroke:#1d6d64;stroke-width:0.52916667;stroke-linecap:butt;stroke-linejoin:miter;stroke-opacity:1;stroke-miterlimit:4;stroke-dasharray:none"
         d="m 10.847917,7.1437502 c 0,0 1.058334,-0.5291667 2.116668,0 1.058334,0.5291666 2.116668,0 2.116668,0"
         id="path14794" />
      <path
         style="fill:none;stroke:#1d6d64;stroke-width:0.52916667;stroke-linecap:butt;stroke-linejoin:miter;stroke-opacity:1;stroke-miterlimit:4;stroke-dasharray:none"
         d="m 2.38125,8.7312503 c 0,0 1.0583334,-0.5291667 2.1166667,0 1.0583333,0.5291666 2.1166666,0 2.1166666,0"
         id="path14876" />
      <path
         style="fill:none;stroke:#1d6d64;stroke-width:0.52916667;stroke-linecap:butt;stroke-linejoin:miter;stroke-opacity:1;stroke-miterlimit:4;stroke-dasharray:none"
         d="m 6.6145836,8.7312503 c 0,0 1.0583334,-0.5291667 2.1166667,0 1.0583333,0.5291666 2.1166667,0 2.1166667,0"
         id="path14878" />
      <path
         style="fill:none;stroke:#1d6d64;stroke-width:0.52916667;stroke-linecap:butt;stroke-linejoin:miter;stroke-opacity:1;stroke-miterlimit:4;stroke-dasharray:none"
         d="m 10.847917,8.7312503 c 0,0 1.058334,-0.5291667 2.116668,0 1.058334,0.5291666 2.116668,0 2.116668,0"
         id="path14880" />
      <path
         style="fill:none;stroke:#1d6d64;stroke-width:0.52916667;stroke-linecap:butt;stroke-linejoin:miter;stroke-opacity:1;stroke-miterlimit:4;stroke-dasharray:none"
         d="m 2.38125,10.31875 c 0,0 1.0583334,-0.5291663 2.1166667,0 1.0583333,0.529167 2.1166666,0 2.1166666,0"
         id="path14978" />
      <path
         style="fill:none;stroke:#1d6d64;stroke-width:0.52916667;stroke-linecap:butt;stroke-linejoin:miter;stroke-opacity:1;stroke-miterlimit:4;stroke-dasharray:none"
         d="m 6.6145836,10.31875 c 0,0 1.0583334,-0.5291663 2.1166667,0 1.0583333,0.529167 2.1166667,0 2.1166667,0"
         id="path14980" />
      <path
         style="fill:none;stroke:#1d6d64;stroke-width:0.52916667;stroke-linecap:butt;stroke-linejoin:miter;stroke-opacity:1;stroke-miterlimit:4;stroke-dasharray:none"
         d="m 10.847917,10.31875 c 0,0 1.058334,-0.5291663 2.116668,0 1.058334,0.529167 2.116668,0 2.116668,0"
         id="path14982" />
    </g>
    <rect
       style="fill:none;stroke:#000000;stroke-width:0.152316;stroke-linecap:square;stroke-opacity:1"
       id="rect15287"
       width="22.072683"
       height="22.072683"
       x="-2.5696754"
       y="-2.5696754" />
  </g>
</svg>
